<?xml version="1.0" encoding="utf-8"?>
<svg viewBox="0 0 184.23 48.28" xmlns="http://www.w3.org/2000/svg"><g fill-rule="evenodd"><g fill="#656fb4"><path d="m51.78 42.18v-20.55h7.88a8.36 8.36 0 0 1 5.62 1.72 6.09 6.09 0 0 1 2 4.89 5.83 5.83 0 0 1 -4.51 6.09l5.4 7.85h-4.47l-4.9-7.24h-3.32v7.24zm3.7-10.63h4.09a5.47 5.47 0 0 0 2.94-.67 2.77 2.77 0 0 0 1.07-2.55 2.76 2.76 0 0 0 -1.07-2.56 5.66 5.66 0 0 0 -2.94-.66h-4.09z"/><path d="m68.47 37.16a5.36 5.36 0 0 1 .09-1 4.84 4.84 0 0 1 .44-1.16 4.24 4.24 0 0 1 1-1.3 5.82 5.82 0 0 1 2-1 10.61 10.61 0 0 1 3.06-.4 18.53 18.53 0 0 1 2.69.21c0-1.94-1.08-2.92-3.24-2.92a12.13 12.13 0 0 0 -4.51.77v-3.03a13.87 13.87 0 0 1 4.72-.77 7 7 0 0 1 5 1.68 6.44 6.44 0 0 1 1.74 4.85v4.16a4.92 4.92 0 0 1 -1.46 3.65 6.79 6.79 0 0 1 -4.87 1.53 7.09 7.09 0 0 1 -5-1.54 5 5 0 0 1 -1.6-3.73zm3.69-.46c0 1.64 1 2.46 2.89 2.46 1.83 0 2.75-.77 2.75-2.33v-1.94a18.33 18.33 0 0 0 -2.2-.19c-2.27 0-3.43.66-3.44 2z"/><path d="m83.63 42.18v-13.93a15.51 15.51 0 0 1 7.05-1.69 7.13 7.13 0 0 1 5 1.68 6.09 6.09 0 0 1 1.81 4.7v9.24h-3.66v-9.55a3.86 3.86 0 0 0 -.12-1 2.47 2.47 0 0 0 -.45-.86 2 2 0 0 0 -1.1-.68 7.23 7.23 0 0 0 -2-.22 16.13 16.13 0 0 0 -2.86.27v12.04z"/><path d="m99.77 42.18v-21.13h3.7v11.4l5.17-5.64h4.91l-6.7 6.84 7.41 8.53h-4.69l-5.08-6.06-1.02 1.04v5.02z"/></g><path d="m122.23 42.18v-20.55h4.1l5.94 8.6 5.94-8.6h4.1v20.55h-3.69v-15.19l-6.35 9.09-6.35-9.09v15.19z" fill="#071016"/><path d="m144.69 37.16a4.61 4.61 0 0 1 .1-1 4.18 4.18 0 0 1 .47-1.22 4 4 0 0 1 1.05-1.3 5.67 5.67 0 0 1 2-1 10.69 10.69 0 0 1 3.07-.4 18.74 18.74 0 0 1 2.69.21c0-1.94-1.09-2.92-3.25-2.92a12.13 12.13 0 0 0 -4.51.77v-2.97a13.87 13.87 0 0 1 4.72-.77 6.94 6.94 0 0 1 5 1.68 6.44 6.44 0 0 1 1.74 4.85v4.16a4.89 4.89 0 0 1 -1.58 3.65 6.76 6.76 0 0 1 -4.86 1.53c-2.27 0-3.94-.52-5-1.54a5 5 0 0 1 -1.61-3.73zm3.7-.46c0 1.64 1 2.46 2.89 2.46 1.83 0 2.75-.77 2.75-2.33v-1.94a18.33 18.33 0 0 0 -2.2-.19c-2.27 0-3.43.66-3.44 2z" fill="#071016"/><path d="m158.85 30v-3.19h2.58v-4.53h3.7v4.53h3.64v3.19h-3.64v7.59a1.73 1.73 0 0 0 .41 1.34 2.37 2.37 0 0 0 1.47.34 4.42 4.42 0 0 0 1.76-.33v3.06a6.09 6.09 0 0 1 -2.36.45h-.08a4.73 4.73 0 0 1 -3.59-1.36 5.14 5.14 0 0 1 -1.31-3.73v-7.36z" fill="#071016"/><path d="m170.61 42.18v-21.18h3.7v6.12a8.32 8.32 0 0 1 3.08-.52 7.13 7.13 0 0 1 5 1.68 6.12 6.12 0 0 1 1.81 4.7v9.24h-3.7v-9.59a5 5 0 0 0 -.1-1 2.51 2.51 0 0 0 -.46-.86 2.22 2.22 0 0 0 -1.16-.68 7.8 7.8 0 0 0 -2-.22 6.07 6.07 0 0 0 -2.46.45v11.9z" fill="#071016"/><path d="m16 30.49a1.5 1.5 0 0 0 1 .4v8.55l-8.51-3.89v-.22z" fill="#586c7d"/><path d="m8.49 25h8.51v2.84a1.53 1.53 0 0 0 -1.43 1l-7.08 4.61z" fill="#41b5e7"/><path d="m23.76 34.48a1.75 1.75 0 0 0 1.75 1.73v7.12l-8.51-3.89v-8.55a1.52 1.52 0 0 0 1-.39z" fill="#2c3d48"/><path d="m17 19.43h8.51v13.28a1.67 1.67 0 0 0 -1.07.37l-6-4.14a1.54 1.54 0 0 0 -1.44-1.12z" fill="#0097d5"/><path d="m34 27.26v6.07l-3.76 8.23a3.61 3.61 0 0 1 -4.75 1.77v-7.12a1.75 1.75 0 0 0 1.76-1.75 1.27 1.27 0 0 0 0-.34z" fill="#071016"/><path d="m25.51 13.77h8.49v11.31l-7.74 7.81a1.69 1.69 0 0 0 -.78-.18z" fill="#006faa"/><path d="m14.17 6.08-10.63 23.27a5.16 5.16 0 0 0 2.54 6.8l18.8 8.59a5.14 5.14 0 0 0 6.79-2.54l10.63-23.28a5.13 5.13 0 0 0 -2.53-6.79l-18.77-8.59a5.16 5.16 0 0 0 -6.8 2.54zm-13.43 21.99 10.63-23.27a8.22 8.22 0 0 1 10.88-4.06l18.8 8.59a8.24 8.24 0 0 1 4.06 10.87l-10.63 23.28a8.23 8.23 0 0 1 -10.88 4.06l-18.8-8.54a8.22 8.22 0 0 1 -4.06-10.93z" fill="#071016"/><path d="m16 30.49a1.5 1.5 0 0 0 1 .4v8.55l-8.51-3.89v-.22z" fill="#586c7d"/><path d="m8.49 25h8.51v2.84a1.53 1.53 0 0 0 -1.43 1l-7.08 4.61z" fill="#94a3d3"/><path d="m23.76 34.48a1.75 1.75 0 0 0 1.75 1.73v7.12l-8.51-3.89v-8.55a1.52 1.52 0 0 0 1-.39z" fill="#2c3d48"/><path d="m17 19.43h8.51v13.28a1.67 1.67 0 0 0 -1.07.37l-6-4.14a1.54 1.54 0 0 0 -1.44-1.12z" fill="#7b8cc6"/><path d="m34 27.26v6.07l-3.76 8.23a3.61 3.61 0 0 1 -4.75 1.77v-7.12a1.75 1.75 0 0 0 1.76-1.75 1.27 1.27 0 0 0 0-.34z" fill="#071016"/><path d="m25.51 13.77h8.49v11.31l-7.74 7.81a1.69 1.69 0 0 0 -.78-.18z" fill="#656fb4"/></g></svg>