<svg width="30" height="30" viewBox="0 0 30 30" fill="none" xmlns="http://www.w3.org/2000/svg">
<path d="M14.9999 29.9999C6.86912 29.9999 0 22.8851 0 14.4637C0 6.35325 6.58884 0 14.9999 0C23.4114 0 29.9999 6.35325 29.9999 14.4637C29.9999 22.8851 23.1308 29.9999 14.9999 29.9999ZM14.9999 1.03441C7.16864 1.03441 1.03441 6.93334 1.03441 14.4637C1.03441 22.3243 7.42968 28.9655 14.9999 28.9655C22.5702 28.9655 28.9655 22.3243 28.9655 14.4637C28.9655 6.93334 22.8313 1.03441 14.9999 1.03441Z" fill="#8DC63F"/>
<path d="M14.9997 16.0344C12.4328 16.0344 10.3447 18.1227 10.3447 20.6896C10.3447 20.9752 10.5759 21.207 10.8618 21.207H19.1376C19.4235 21.207 19.655 20.9752 19.655 20.6896C19.655 18.1227 17.5669 16.0344 14.9997 16.0344ZM12.9309 20.1723C12.9309 19.0299 13.857 18.1035 14.9997 18.1035C16.1424 18.1035 17.0688 19.0299 17.0688 20.1723H12.9309Z" fill="#8DC63F"/>
<path d="M21.4657 13.4482C20.4674 13.4482 19.6553 12.6363 19.6553 11.638C19.6553 10.6397 20.4674 9.82761 21.4657 9.82761C22.4637 9.82761 23.2758 10.6397 23.2758 11.638C23.2758 12.6363 22.4637 13.4482 21.4657 13.4482ZM21.4657 10.862C21.0377 10.862 20.6897 11.2101 20.6897 11.638C20.6897 12.0657 21.0377 12.4138 21.4657 12.4138C21.8934 12.4138 22.2414 12.0657 22.2414 11.638C22.2414 11.2101 21.8934 10.862 21.4657 10.862Z" fill="#8DC63F"/>
<path d="M8.53456 13.4482C7.53626 13.4482 6.72412 12.6363 6.72412 11.638C6.72412 10.6397 7.53626 9.82761 8.53456 9.82761C9.53256 9.82761 10.345 10.6397 10.345 11.638C10.345 12.6363 9.53256 13.4482 8.53456 13.4482ZM8.53456 10.862C8.10659 10.862 7.75853 11.2101 7.75853 11.638C7.75853 12.0657 8.10659 12.4138 8.53456 12.4138C8.96253 12.4138 9.31029 12.0657 9.31029 11.638C9.31029 11.2101 8.96253 10.862 8.53456 10.862Z" fill="#8DC63F"/>
<path d="M22.7588 9.31025H18.6209C18.335 9.31025 18.1035 9.07881 18.1035 8.7932C18.1035 8.50759 18.335 8.27585 18.6209 8.27585H22.7588C23.0447 8.27585 23.2758 8.50759 23.2758 8.7932C23.2758 9.07881 23.0447 9.31025 22.7588 9.31025Z" fill="#8DC63F"/>
<path d="M5.73736 9.75273C5.4994 9.75273 5.28542 9.58758 5.23274 9.34578C5.17177 9.06698 5.34846 8.79113 5.62726 8.72987L9.66929 7.84551C9.9481 7.78454 10.2245 7.96094 10.2852 8.24004C10.3462 8.51914 10.1695 8.79468 9.89068 8.85595L5.84865 9.7406C5.81135 9.74889 5.77436 9.75273 5.73736 9.75273Z" fill="#8DC63F"/>
</svg>
