<svg width="50" height="50" viewBox="0 0 50 50" fill="none" xmlns="http://www.w3.org/2000/svg">
<path d="M50 44.4445C50 47.5126 47.5125 50 44.4445 50H5.55554C2.48755 50 0 47.5124 0 44.4445V5.55554C0 2.48755 2.48755 0 5.55554 0H44.4445C47.5125 0 50 2.48755 50 5.55554V44.4445Z" fill="#8DC63F"/>
<path d="M25.3361 15.8182H25.2513L19.4361 27.8322H25.3361V15.8182ZM14.9584 33.5169C12.8487 33.5169 11.9431 32.0975 11.9431 30.9766C11.9431 30.0294 12.2876 29.5113 12.5473 29.0822L22.1931 11.5974C23.1404 9.8752 24.346 9.10017 26.5848 9.10017C29.0835 9.10017 31.5376 10.6947 31.5376 14.6127V27.8322H32.2709C33.9501 27.8322 35.2848 28.9531 35.2848 30.6752C35.2848 32.3989 33.9501 33.5169 32.2709 33.5169H31.5376V37.1781C31.5376 39.4601 30.6334 40.5364 28.4376 40.5364C26.2404 40.5364 25.3362 39.46 25.3362 37.1781V33.5169H14.9584Z" fill="white"/>
</svg>
