<svg width="20" height="20" viewBox="0 0 20 20" fill="none" xmlns="http://www.w3.org/2000/svg">
<path d="M10 0C4.48615 0 0 4.48585 0 10C0 15.5142 4.48615 20 10 20C15.5138 20 20 15.5142 20 10C20 4.48585 15.5138 0 10 0ZM10 18.7692C5.16462 18.7692 1.23077 14.8354 1.23077 10C1.23077 5.16462 5.16462 1.23077 10 1.23077C14.8354 1.23077 18.7692 5.16462 18.7692 10C18.7692 14.8354 14.8354 18.7692 10 18.7692Z" fill="#8DC63F"/>
<path d="M10.1594 7.04186C10.7278 7.04186 11.1886 6.58106 11.1886 6.01263C11.1886 5.4442 10.7278 4.9834 10.1594 4.9834C9.59096 4.9834 9.13016 5.4442 9.13016 6.01263C9.13016 6.58106 9.59096 7.04186 10.1594 7.04186Z" fill="#8DC63F"/>
<path d="M9.8883 8.72058C9.54861 8.72058 9.27292 8.99627 9.27292 9.33597V14.5667C9.27292 14.9064 9.54861 15.1821 9.8883 15.1821C10.228 15.1821 10.5037 14.9064 10.5037 14.5667V9.33597C10.5037 8.99597 10.228 8.72058 9.8883 8.72058Z" fill="#8DC63F"/>
</svg>
