<svg width="15" height="15" viewBox="0 0 15 15" fill="none" xmlns="http://www.w3.org/2000/svg">
<path d="M7.49976 15C3.36424 15 0 11.6353 0 7.49976C0 3.36424 3.36424 0 7.49976 0C11.6353 0 14.9995 3.36424 14.9995 7.49976C15 11.6353 11.6353 15 7.49976 15ZM7.49976 0.856757C3.83657 0.856757 0.856756 3.83705 0.856756 7.49976C0.856756 11.1625 3.83657 14.1423 7.49976 14.1423C11.1625 14.1423 14.1423 11.1625 14.1423 7.49976C14.1423 3.83705 11.1625 0.856757 7.49976 0.856757Z" fill="#8DC63F"/>
<path d="M10.4564 7.92814H4.54214C4.3055 7.92814 4.11328 7.73689 4.11328 7.49977C4.11328 7.26312 4.30501 7.0709 4.54214 7.0709H10.4564C10.693 7.0709 10.8847 7.26312 10.8847 7.49977C10.8847 7.73689 10.6935 7.92814 10.4564 7.92814Z" fill="#8DC63F"/>
<path d="M7.49917 10.8853C7.26253 10.8853 7.07031 10.6935 7.07031 10.4569V4.54265C7.07031 4.306 7.26253 4.11378 7.49917 4.11378C7.73582 4.11378 7.92755 4.306 7.92755 4.54265V10.4569C7.92755 10.694 7.7363 10.8853 7.49917 10.8853Z" fill="#8DC63F"/>
</svg>
