<svg width="100" height="100" viewBox="0 0 100 100" fill="none" xmlns="http://www.w3.org/2000/svg">
<path d="M98.3333 30H93.3333V27.5C93.3333 24.2784 90.7217 21.6667 87.5 21.6667C86.6333 21.6715 85.779 21.8715 85 22.2517V20C85 16.3182 82.0152 13.3334 78.3333 13.3334C74.6515 13.3334 71.6667 16.3182 71.6667 20V30H65V28.3334C65.0121 25.584 62.7931 23.3452 60.0437 23.333C58.7948 23.3273 57.5894 23.7915 56.6667 24.6334C54.7825 22.9 51.8842 22.9 50 24.6334C48.1158 22.9 45.2175 22.9 43.3333 24.6334C41.3021 22.7805 38.1533 22.925 36.3004 24.9563C35.4588 25.879 34.9946 27.0844 35 28.3334V30H28.3333V20C28.3333 16.3182 25.3485 13.3334 21.6667 13.3334C17.9848 13.3334 15 16.3182 15 20V22.2517C14.221 21.8715 13.3667 21.6715 12.5 21.6667C9.27833 21.6667 6.66667 24.2784 6.66667 27.5V30H1.66667C0.74625 30 0 30.7463 0 31.6667V41.6667C0 42.5871 0.74625 43.3334 1.66667 43.3334H6.66667V45.8334C6.66667 49.055 9.27833 51.6667 12.5 51.6667C13.3667 51.6619 14.221 51.4619 15 51.0817V53.3334C15 57.0152 17.9848 60 21.6667 60C25.3485 60 28.3333 57.0152 28.3333 53.3334V43.3334H31.6667V48.905C31.6612 51.1161 32.5404 53.2375 34.1083 54.7967L38.3333 59.0234V86.6667H41.6667V58.3334C41.6667 57.8913 41.4908 57.4675 41.1783 57.155L36.465 52.44C35.5298 51.5009 35.0033 50.2305 35 48.905V38.3334H44.7617C45.3927 38.3248 45.9906 38.6146 46.375 39.115C46.3867 39.1317 46.4 39.1484 46.4117 39.1667C46.4831 39.2805 46.5392 39.4032 46.5783 39.5317C46.6098 39.6344 46.631 39.7398 46.6417 39.8467C46.6533 39.9513 46.6533 40.0571 46.6417 40.1617C46.6379 40.2177 46.6306 40.2734 46.62 40.3284C46.5823 40.504 46.5175 40.6725 46.4283 40.8284C46.1377 41.3444 45.5923 41.6644 45 41.6667H40C39.0796 41.6667 38.3333 42.413 38.3333 43.3334V46.6667C38.3331 47.3844 38.7925 48.0215 39.4733 48.2484L43.14 49.4734C46.1167 50.4617 48.3333 54.9667 48.3333 58.3334H51.6667C51.6667 53.7484 48.8133 47.8467 44.2017 46.31L41.6667 45.465V45H45C46.4027 44.9865 47.7344 44.3813 48.6667 43.3334H63.3333V49.445C63.3312 50.5265 62.9806 51.5786 62.3333 52.445L58.6667 57.3334C58.4502 57.6219 58.3333 57.9727 58.3333 58.3334V86.6667H61.6667V58.8884L65 54.445C66.0788 53.0011 66.6633 51.2475 66.6667 49.445V43.3334H71.6667V53.3334C71.6667 57.0152 74.6515 60 78.3333 60C82.0152 60 85 57.0152 85 53.3334V51.0817C85.779 51.4619 86.6333 51.6619 87.5 51.6667C90.7217 51.6667 93.3333 49.055 93.3333 45.8334V43.3334H98.3333C99.2537 43.3334 100 42.5871 100 41.6667V31.6667C100 30.7463 99.2537 30 98.3333 30ZM6.66667 40H3.33333V33.3334H6.66667V40ZM15 45.8334C15 47.214 13.8806 48.3334 12.5 48.3334C11.1194 48.3334 10 47.214 10 45.8334V27.5C10 26.1194 11.1194 25 12.5 25C13.8806 25 15 26.1194 15 27.5V45.8334ZM25 53.3334C25 55.1744 23.5077 56.6667 21.6667 56.6667C19.8256 56.6667 18.3333 55.1744 18.3333 53.3334V20C18.3333 18.159 19.8256 16.6667 21.6667 16.6667C23.5077 16.6667 25 18.159 25 20V53.3334ZM33.3333 35C32.4129 35 31.6667 35.7463 31.6667 36.6667V40H28.3333V33.3334H35C35.0019 33.6484 35.0335 33.9627 35.095 34.2717C35.1133 34.37 35.145 34.46 35.1683 34.555C35.2067 34.7034 35.235 34.8567 35.285 35H33.3333ZM41.6667 33.3334C41.6667 34.2538 40.9204 35 40 35C39.0796 35 38.3333 34.2538 38.3333 33.3334V28.3334C38.3333 27.413 39.0796 26.6667 40 26.6667C40.9204 26.6667 41.6667 27.413 41.6667 28.3334V33.3334ZM48.3333 33.3334C48.3333 34.2538 47.5871 35 46.6667 35C45.7463 35 45 34.2538 45 33.3334V28.3334C45 27.413 45.7463 26.6667 46.6667 26.6667C47.5871 26.6667 48.3333 27.413 48.3333 28.3334V33.3334ZM58.3333 28.3334C58.3333 27.413 59.0796 26.6667 60 26.6667C60.9204 26.6667 61.6667 27.413 61.6667 28.3334V33.3334C61.6667 34.2538 60.9204 35 60 35C59.0796 35 58.3333 34.2538 58.3333 33.3334V28.3334ZM51.6667 28.3334C51.6667 27.413 52.4129 26.6667 53.3333 26.6667C54.2537 26.6667 55 27.413 55 28.3334V33.3334C55 34.2538 54.2537 35 53.3333 35C52.4129 35 51.6667 34.2538 51.6667 33.3334V28.3334ZM71.6667 40H50C50 39.9834 50 39.97 50 39.9534C49.9985 39.6219 49.964 39.2913 49.8967 38.9667C49.8867 38.9217 49.865 38.88 49.855 38.8334C49.825 38.7117 49.7817 38.5984 49.7433 38.48C49.6729 38.2665 49.5877 38.0584 49.4883 37.8567C49.44 37.7567 49.4167 37.6434 49.3617 37.5467C49.3806 37.5338 49.399 37.5198 49.4167 37.505C49.4933 37.455 49.56 37.395 49.6333 37.3384C49.7583 37.245 49.89 37.1584 50.0067 37.0534C50.1033 37.14 50.215 37.2084 50.3183 37.2867C50.4217 37.365 50.5233 37.4534 50.635 37.5234C50.7923 37.6205 50.9548 37.709 51.1217 37.7884C51.235 37.8434 51.3417 37.9084 51.455 37.955C51.6496 38.0296 51.849 38.0915 52.0517 38.14C52.1567 38.1684 52.255 38.2084 52.3633 38.23C53.0044 38.3611 53.6654 38.3611 54.3067 38.23C54.415 38.2084 54.5133 38.1684 54.6183 38.14C54.821 38.0915 55.0204 38.0296 55.215 37.955C55.3333 37.9067 55.44 37.8417 55.5483 37.7884C55.7158 37.709 55.8787 37.6205 56.0367 37.5234C56.1467 37.45 56.2467 37.3667 56.3517 37.2867C56.4567 37.2067 56.5667 37.14 56.6633 37.0534C56.76 37.14 56.8717 37.2084 56.975 37.2867C57.0783 37.365 57.18 37.4534 57.2917 37.5234C57.449 37.6205 57.6115 37.709 57.7783 37.7884C57.8917 37.8434 57.9983 37.9084 58.1117 37.955C58.3062 38.0296 58.5056 38.0915 58.7083 38.14C58.8133 38.1684 58.9117 38.2084 59.02 38.23C61.719 38.7786 64.3515 37.0355 64.9 34.3367C64.9671 34.0065 65.0006 33.6705 65 33.3334H71.6667V40ZM81.6667 53.3334C81.6667 55.1744 80.1744 56.6667 78.3333 56.6667C76.4923 56.6667 75 55.1744 75 53.3334V20C75 18.159 76.4923 16.6667 78.3333 16.6667C80.1744 16.6667 81.6667 18.159 81.6667 20V53.3334ZM90 45.8334C90 47.214 88.8806 48.3334 87.5 48.3334C86.1194 48.3334 85 47.214 85 45.8334V27.5C85 26.1194 86.1194 25 87.5 25C88.8806 25 90 26.1194 90 27.5V45.8334ZM96.6667 40H93.3333V33.3334H96.6667V40Z" fill="#8DC63F"/>
</svg>
