<svg width="15" height="21" viewBox="0 0 15 21" fill="none" xmlns="http://www.w3.org/2000/svg">
<path d="M0.407271 11.0173L11.7695 19.9174C12.0323 20.1234 12.3831 20.2369 12.7571 20.2369C13.1312 20.2369 13.482 20.1234 13.7448 19.9174L14.5815 19.2621C15.126 18.8351 15.126 18.1411 14.5815 17.7148L5.04041 10.241L14.5921 2.75897C14.8549 2.55296 15 2.27832 15 1.98548C15 1.69231 14.8549 1.41768 14.5921 1.2115L13.7554 0.556385C13.4924 0.350372 13.1418 0.236877 12.7677 0.236877C12.3937 0.236877 12.0428 0.350372 11.7801 0.556385L0.407271 9.46461C0.143854 9.67127 -0.000826836 9.9472 3.8147e-06 10.2405C-0.000826836 10.535 0.143854 10.8108 0.407271 11.0173Z" fill="#0D3153"/>
</svg>
