<svg width="100" height="100" viewBox="0 0 100 100" fill="none" xmlns="http://www.w3.org/2000/svg">
<g clip-path="url(#clip0)">
<path d="M40.4166 0C34.899 0 30.4103 4.48869 30.4103 10.0063C30.4103 15.5239 34.8992 20.0126 40.4166 20.0126C45.9342 20.0126 50.4229 15.5239 50.4229 10.0063C50.4229 4.48869 45.9342 0 40.4166 0ZM40.4166 17.0827C36.5146 17.0827 33.3402 13.9083 33.3402 10.0063C33.3402 6.10432 36.5148 2.92989 40.4166 2.92989C44.3185 2.92989 47.493 6.10452 47.493 10.0063C47.493 13.9081 44.3185 17.0827 40.4166 17.0827Z" fill="#8DC63F"/>
<path d="M77.93 60.9912C77.3523 60.4252 76.4247 60.4338 75.8583 61.0115L63.5624 73.5516L59.2202 69.0084C58.6612 68.4233 57.7338 68.4024 57.1489 68.9616C56.5641 69.5205 56.543 70.4477 57.102 71.0329L62.4899 76.67C63.0614 77.2682 64.0153 77.2745 64.595 76.6835L77.9503 63.0631C78.5167 62.485 78.5075 61.5576 77.93 60.9912Z" fill="#8DC63F"/>
<path d="M86.0126 70.7761C85.2197 70.6188 84.448 71.1337 84.2904 71.9274C82.6107 80.3792 76.6468 87.6005 68.7257 90.774C67.9747 91.0748 67.6098 91.9275 67.9106 92.6787C68.2114 93.4299 69.0643 93.7945 69.8153 93.4937C78.9347 89.8404 85.3285 81.7355 87.1638 72.4985C87.3218 71.7048 86.806 70.9337 86.0126 70.7761Z" fill="#8DC63F"/>
<path d="M83.498 48.202C79.5792 50.4159 75.8829 50.4897 72.511 48.4215C69.8305 46.7776 68.3284 44.3695 68.2684 44.2723C67.7749 43.4643 66.9319 42.9678 65.993 42.9225C63.2676 35.2918 58.719 29.9914 55.2924 26.8357C53.107 24.8232 50.2705 23.715 47.3051 23.715C45.8808 23.715 34.9148 23.715 33.5282 23.715C30.3622 23.715 27.3487 24.9046 25.0431 27.0646C20.2958 31.5123 12.3244 41.2287 12.2778 56.3284C12.2678 59.4944 14.7815 62.1395 17.8809 62.2249C21.1186 62.3196 23.8085 59.7214 23.8085 56.4618C23.8085 50.795 25.4001 45.4604 28.4458 40.8205V94.9176C28.4458 97.7201 30.7259 100 33.5284 100H36.7994C38.2134 100 39.4947 99.4198 40.4169 98.4844C41.3392 99.4198 42.6203 100 44.0345 100H47.3054C50.108 100 52.3881 97.7201 52.3881 94.9176V87.1947C55.0981 89.9172 58.3246 92.0652 61.8899 93.4934C62.6414 93.7943 63.494 93.4289 63.7946 92.6783C64.0956 91.9273 63.7305 91.0746 62.9795 90.7736C53.5479 86.9949 46.9133 77.6271 46.9133 66.8036V50.8356C52.8441 54.1204 58.5865 53.3192 63.2778 48.9414C64.3539 47.9528 65.2309 46.9065 65.8237 45.9768C65.8329 45.9627 65.845 45.9449 65.853 45.9324C66.2737 46.5822 68.0313 49.1106 70.9801 50.9192C73.9454 52.7383 78.7397 54.1889 84.7929 50.8354V65.3766C84.7929 66.1858 85.4488 66.8415 86.2577 66.8415C87.0667 66.8415 87.7226 66.1858 87.7226 65.3766V50.6672C87.722 48.502 85.3867 47.1358 83.498 48.202ZM42.9923 26.6449L41.2382 28.7285C40.8087 29.2384 40.0248 29.2384 39.5951 28.7285L37.8408 26.6449H42.9923ZM52.3877 49.7867V41.1996C54.0754 43.8496 55.285 46.7057 56.001 49.7364C54.8268 49.9938 53.6244 50.0098 52.3877 49.7867ZM58.7545 48.6606C57.5779 43.9588 55.3219 39.65 52.0324 35.8301C51.1467 34.8015 49.4572 35.4336 49.4572 36.7859V48.8405C48.8262 48.5531 48.0347 48.1135 48.0131 48.1033C46.1517 47.2274 43.9822 48.583 43.9822 50.6674V50.7178V66.804C43.9822 72.9364 45.8785 78.8013 49.4572 83.7509V94.918H49.458C49.458 96.1049 48.4924 97.0707 47.3052 97.0707H44.0343C42.8474 97.0707 41.8816 96.1053 41.8816 94.918V64.8124C41.8816 64.0032 41.2257 63.3475 40.4167 63.3475C39.6078 63.3475 38.9519 64.0032 38.9519 64.8124V94.9178C38.9519 96.1047 37.9863 97.0705 36.7992 97.0705H33.5282C32.3413 97.0705 31.3755 96.1051 31.3755 94.9178V36.498C31.3755 35.1506 29.7015 34.5207 28.812 35.5289C23.6216 41.4109 20.8782 48.6496 20.8782 56.462C20.8782 58.0391 19.5903 59.3352 17.9614 59.2964C16.4379 59.2544 15.2024 57.9272 15.2075 56.3377C15.2508 42.3381 22.6432 33.3279 27.0462 29.2031C28.8069 27.5535 31.1087 26.6449 33.528 26.6449H34.0107L37.3536 30.6152C38.9538 32.5164 41.881 32.5138 43.4793 30.6152L46.822 26.6449H47.3047C49.533 26.6449 51.6646 27.4781 53.3074 28.9908C56.5526 31.9795 60.883 37.0379 63.3885 44.3451C62.2729 46.0285 60.5715 47.635 58.7545 48.6606Z" fill="#8DC63F"/>
</g>
<defs>
<clipPath id="clip0">
<rect width="100" height="100" fill="white"/>
</clipPath>
</defs>
</svg>
