<svg width="15" height="20" viewBox="0 0 15 20" fill="none" xmlns="http://www.w3.org/2000/svg">
<path d="M0.407271 10.7804L11.7695 19.6805C12.0323 19.8865 12.3831 20 12.7571 20C13.1312 20 13.482 19.8865 13.7448 19.6805L14.5815 19.0252C15.126 18.5982 15.126 17.9042 14.5815 17.4779L5.04041 10.0041L14.5921 2.52209C14.8549 2.31608 15 2.04145 15 1.7486C15 1.45543 14.8549 1.1808 14.5921 0.974625L13.7554 0.319508C13.4924 0.113495 13.1418 0 12.7677 0C12.3937 0 12.0428 0.113495 11.7801 0.319508L0.407271 9.22773C0.143854 9.43439 -0.000826836 9.71033 3.8147e-06 10.0037C-0.000826836 10.2981 0.143854 10.5739 0.407271 10.7804Z" fill="#BDBDBD"/>
</svg>
