<svg width="80" height="80" viewBox="0 0 80 80" fill="none" xmlns="http://www.w3.org/2000/svg">
<path d="M40 0C17.9431 0 0 17.9431 0 40C0 62.0569 17.9431 80 40 80C62.0569 80 80 62.0569 80 40C80 17.9431 62.0569 0 40 0ZM40 76.9231C19.6415 76.9231 3.07692 60.3585 3.07692 40C3.07692 19.6415 19.6415 3.07692 40 3.07692C60.3585 3.07692 76.9231 19.6415 76.9231 40C76.9231 60.3585 60.3585 76.9231 40 76.9231Z" fill="#8DC63F"/>
<path d="M40 56.9231C39.1492 56.9231 38.4615 57.6108 38.4615 58.4615V61.5385C38.4615 62.3892 39.1492 63.0769 40 63.0769C40.8508 63.0769 41.5385 62.3892 41.5385 61.5385V58.4615C41.5385 57.6108 40.8508 56.9231 40 56.9231Z" fill="#8DC63F"/>
<path d="M40.1739 13.8477C40.1154 13.8477 40.0569 13.8462 39.9969 13.8462C36.7416 13.8462 33.68 15.1 31.3585 17.3908C28.9954 19.7215 27.6923 22.8339 27.6923 26.1539C27.6923 27.0046 28.38 27.6923 29.2308 27.6923C30.0816 27.6923 30.7692 27.0046 30.7692 26.1539C30.7692 23.6646 31.7462 21.3292 33.5185 19.5815C35.2923 17.8323 37.6539 16.8662 40.1323 16.9246C44.9954 16.9923 49.1616 21.1585 49.2292 26.0215C49.2739 29.2277 47.6923 32.1785 44.9969 33.9169C40.9046 36.5569 38.4616 41.2215 38.4616 46.3969V50.7692C38.4616 51.62 39.1492 52.3077 40 52.3077C40.8508 52.3077 41.5385 51.62 41.5385 50.7692V46.3969C41.5385 42.3323 43.5016 38.5431 46.6646 36.5015C50.2569 34.1846 52.3662 30.2508 52.3062 25.9785C52.2139 19.3831 46.7708 13.94 40.1739 13.8477Z" fill="#8DC63F"/>
</svg>
