<svg width="25" height="25" viewBox="0 0 25 25" fill="none" xmlns="http://www.w3.org/2000/svg">
<path d="M12.4996 25C5.60707 25 0 19.3921 0 12.4996C0 5.60707 5.60707 0 12.4996 0C19.3921 0 24.9992 5.60707 24.9992 12.4996C25 19.3921 19.3921 25 12.4996 25ZM12.4996 1.42793C6.39428 1.42793 1.42793 6.39509 1.42793 12.4996C1.42793 18.6041 6.39428 23.5705 12.4996 23.5705C18.6041 23.5705 23.5705 18.6041 23.5705 12.4996C23.5705 6.39509 18.6041 1.42793 12.4996 1.42793Z" fill="#375D81"/>
<path d="M17.4281 13.2136H7.57109C7.17668 13.2136 6.85632 12.8949 6.85632 12.4997C6.85632 12.1053 7.17588 11.7849 7.57109 11.7849H17.4281C17.8225 11.7849 18.1421 12.1053 18.1421 12.4997C18.1421 12.8949 17.8234 13.2136 17.4281 13.2136Z" fill="#375D81"/>
</svg>
