<svg width="35" height="35" viewBox="0 0 35 35" fill="none" xmlns="http://www.w3.org/2000/svg">
<rect width="35" height="35" fill="#8DC63F"/>
<g clip-path="url(#clip0)">
<path d="M18.091 5.97273L21.271 13.4993L29.4122 14.1987C29.9769 14.2475 30.2066 14.952 29.778 15.3229L23.6027 20.6729L25.4533 28.632C25.5816 29.1851 24.9823 29.6201 24.4972 29.3263L17.5006 25.1068L10.5041 29.3263C10.0177 29.6188 9.41969 29.1838 9.54802 28.632L11.3985 20.6729L5.22201 15.3216C4.79338 14.9507 5.02181 14.2462 5.58775 14.1974L13.729 13.498L16.909 5.97273C17.1298 5.44914 17.8702 5.44914 18.091 5.97273Z" fill="white"/>
</g>
<defs>
<clipPath id="clip0">
<rect width="25" height="25" fill="white" transform="translate(5 5)"/>
</clipPath>
</defs>
</svg>
