<svg width="60" height="60" viewBox="0 0 60 60" fill="none" xmlns="http://www.w3.org/2000/svg">
<g clip-path="url(#clip0)">
<path d="M30.0003 0C13.4568 0 0 13.4575 0 30.0003C0 46.5439 13.4568 60 30.0003 60C46.5432 60 60 46.5439 60 30.0003C60 13.4575 46.5432 0 30.0003 0ZM30.0003 54.5463C16.465 54.5463 5.45442 43.5357 5.45442 30.0003C5.45442 16.4705 16.465 5.4551 30.0003 5.4551C43.535 5.4551 54.5463 16.4705 54.5463 30.0003C54.5463 43.5357 43.535 54.5463 30.0003 54.5463ZM25.9083 38.1837L38.181 30.0003L25.9083 21.8163V38.1837Z" fill="#8DC63F"/>
</g>
<defs>
<clipPath id="clip0">
<rect width="60" height="60" fill="white"/>
</clipPath>
</defs>
</svg>
