<svg width="50" height="50" viewBox="0 0 50 50" fill="none" xmlns="http://www.w3.org/2000/svg">
<path d="M50 44.4445C50 47.5126 47.5125 50 44.4445 50H5.55554C2.48755 50 0 47.5124 0 44.4445V5.55554C0 2.48755 2.48755 0 5.55554 0H44.4445C47.5125 0 50 2.48755 50 5.55554V44.4445Z" fill="#8DC63F"/>
<path d="M33.4861 16.9806C33.4861 19.6945 32.3249 22.0625 29.9555 23.5695C33.0555 24.9917 35.2083 27.8765 35.2083 31.2778C35.2083 36.4459 30.4723 40.7946 24.3569 40.7946C17.9832 40.7946 14.0222 36.1016 14.0222 32.6987C14.0222 31.0195 15.7874 29.814 17.3375 29.814C20.2667 29.814 19.5777 34.8529 24.4431 34.8529C26.6833 34.8529 28.4917 33.1307 28.4917 30.8473C28.4917 24.8181 21.1709 29.2543 21.1709 24.1722C21.1709 19.6514 27.2848 22.7084 27.2848 17.9292C27.2848 16.2918 26.1236 15.0431 24.1848 15.0431C20.0945 15.0431 20.6543 19.2626 17.7251 19.2626C15.9598 19.2626 14.9265 17.6696 14.9265 16.0764C14.9265 12.7181 19.5348 9.09998 24.3139 9.09998C30.5152 9.09998 33.4861 13.6222 33.4861 16.9806Z" fill="white"/>
</svg>
