<svg width="80" height="80" viewBox="0 0 80 80" fill="none" xmlns="http://www.w3.org/2000/svg">
<g clip-path="url(#clip0)">
<path d="M16.8299 26.3014C14.1107 26.3014 11.8984 28.5137 11.8984 31.2329C11.8984 33.9521 14.1107 36.1644 16.8299 36.1644C19.5492 36.1644 21.7614 33.9521 21.7614 31.2329C21.7614 28.5137 19.5492 26.3014 16.8299 26.3014ZM16.8299 33.816C15.4056 33.816 14.2468 32.6572 14.2468 31.2329C14.2468 29.8085 15.4056 28.6497 16.8299 28.6497C18.2543 28.6497 19.4131 29.8085 19.4131 31.2329C19.4131 32.6572 18.2543 33.816 16.8299 33.816Z" fill="#8DC63F"/>
<path d="M26.8499 30.0587C26.2015 30.0587 25.6758 30.5844 25.6758 31.2329C25.6758 31.8813 26.2015 32.4071 26.8499 32.4071H35.6171C36.2655 32.4071 36.7912 31.8813 36.7912 31.2329C36.7912 30.5844 36.2655 30.0587 35.6171 30.0587H26.8499Z" fill="#8DC63F"/>
<path d="M55.6557 30.0587H40.6263C39.9779 30.0587 39.4521 30.5844 39.4521 31.2329C39.4521 31.8813 39.9779 32.4071 40.6263 32.4071H55.6557C56.3041 32.4071 56.8298 31.8813 56.8298 31.2329C56.8298 30.5844 56.3041 30.0587 55.6557 30.0587Z" fill="#8DC63F"/>
<path d="M26.849 36.3209H21.8392C21.1908 36.3209 20.665 36.8467 20.665 37.4951V42.5049C20.665 43.1533 21.1908 43.6791 21.8392 43.6791H26.849C27.4974 43.6791 28.0232 43.1533 28.0232 42.5049V37.4951C28.0232 36.8467 27.4974 36.3209 26.849 36.3209ZM25.6748 41.3307H23.0134V38.6693H25.6748V41.3307Z" fill="#8DC63F"/>
<path d="M40.6259 38.8258H31.8587C31.2103 38.8258 30.6846 39.3516 30.6846 40C30.6846 40.6485 31.2103 41.1742 31.8587 41.1742H40.6259C41.2743 41.1742 41.8 40.6485 41.8 40C41.8 39.3516 41.2743 38.8258 40.6259 38.8258Z" fill="#8DC63F"/>
<path d="M55.6557 38.8258H45.6361C44.9876 38.8258 44.4619 39.3516 44.4619 40C44.4619 40.6485 44.9876 41.1742 45.6361 41.1742H55.6557C56.3041 41.1742 56.8298 40.6485 56.8298 40C56.8298 39.3516 56.3041 38.8258 55.6557 38.8258Z" fill="#8DC63F"/>
<path d="M26.849 46.3405H21.8392C21.1908 46.3405 20.665 46.8662 20.665 47.5147V52.5245C20.665 53.1729 21.1908 53.6986 21.8392 53.6986H26.849C27.4974 53.6986 28.0232 53.1729 28.0232 52.5245V47.5147C28.0232 46.8662 27.4974 46.3405 26.849 46.3405ZM25.6748 51.3503H23.0134V48.6889H25.6748V51.3503Z" fill="#8DC63F"/>
<path d="M31.8587 51.1937H38.121C38.7694 51.1937 39.2951 50.668 39.2951 50.0196C39.2951 49.3711 38.7694 48.8454 38.121 48.8454H31.8587C31.2103 48.8454 30.6846 49.3711 30.6846 50.0196C30.6846 50.668 31.2103 51.1937 31.8587 51.1937Z" fill="#8DC63F"/>
<path d="M56.8298 50.0196C56.8298 49.3711 56.3041 48.8454 55.6557 48.8454H43.1312C42.4827 48.8454 41.957 49.3711 41.957 50.0196C41.957 50.668 42.4827 51.1937 43.1312 51.1937H55.6557C56.3041 51.1937 56.8298 50.668 56.8298 50.0196Z" fill="#8DC63F"/>
<path d="M26.849 56.3601H21.8392C21.1908 56.3601 20.665 56.8858 20.665 57.5342V62.544C20.665 63.1925 21.1908 63.7182 21.8392 63.7182H26.849C27.4974 63.7182 28.0232 63.1925 28.0232 62.544V57.5342C28.0232 56.8858 27.4974 56.3601 26.849 56.3601ZM25.6748 61.3699H23.0134V58.7084H25.6748V61.3699Z" fill="#8DC63F"/>
<path d="M40.6259 58.865H31.8587C31.2103 58.865 30.6846 59.3907 30.6846 60.0391C30.6846 60.6876 31.2103 61.2133 31.8587 61.2133H40.6259C41.2743 61.2133 41.8 60.6876 41.8 60.0391C41.8 59.3907 41.2743 58.865 40.6259 58.865Z" fill="#8DC63F"/>
<path d="M56.8298 60.0391C56.8298 59.3907 56.3041 58.865 55.6557 58.865H45.6361C44.9876 58.865 44.4619 59.3907 44.4619 60.0391C44.4619 60.6876 44.9876 61.2133 45.6361 61.2133H55.6557C56.3041 61.2133 56.8298 60.6876 56.8298 60.0391Z" fill="#8DC63F"/>
<path d="M13.0726 23.6399H43.7575C44.406 23.6399 44.9317 23.1142 44.9317 22.4658C44.9317 21.8173 44.406 21.2916 43.7575 21.2916H14.2468V17.3777H54.4816V21.2916H49.4764C48.8279 21.2916 48.3022 21.8173 48.3022 22.4658C48.3022 23.1142 48.8279 23.6399 49.4764 23.6399H55.6558C56.3042 23.6399 56.8299 23.1142 56.8299 22.4658V16.2035C56.8299 15.5551 56.3042 15.0294 55.6558 15.0294H13.0726C12.4242 15.0294 11.8984 15.5551 11.8984 16.2035V22.4658C11.8984 23.1142 12.4242 23.6399 13.0726 23.6399Z" fill="#8DC63F"/>
<path d="M45.6361 12.3679H55.6557C56.3041 12.3679 56.8298 11.8422 56.8298 11.1937C56.8298 10.5453 56.3041 10.0196 55.6557 10.0196H45.6361C44.9876 10.0196 44.4619 10.5453 44.4619 11.1937C44.4619 11.8422 44.9876 12.3679 45.6361 12.3679Z" fill="#8DC63F"/>
<path d="M23.0921 12.3679H40.6264C41.2748 12.3679 41.8006 11.8422 41.8006 11.1937C41.8006 10.5453 41.2748 10.0196 40.6264 10.0196H23.0921C22.4437 10.0196 21.918 10.5453 21.918 11.1937C21.918 11.8422 22.4437 12.3679 23.0921 12.3679Z" fill="#8DC63F"/>
<path d="M73.4192 57.5779C72.0622 56.0701 69.7312 55.9474 68.2234 57.3044L63.0917 61.9231V1.17417C63.0917 0.525714 62.566 0 61.9175 0H16.8295C16.5217 0 16.2169 0.126341 15.9993 0.343953L5.97969 10.3635C5.76193 10.581 5.63574 10.8861 5.63574 11.1937V78.8258C5.63574 79.4743 6.16146 80 6.80991 80H61.9175C62.566 80 63.0917 79.4743 63.0917 78.8258V71.8225L73.1459 62.7737C73.8764 62.1163 74.3071 61.2138 74.3587 60.2325C74.4102 59.2512 74.0766 58.3084 73.4192 57.5779ZM15.6553 4.00877V10.0196H9.64451L15.6553 4.00877ZM60.7434 77.6517H7.98408V12.3679H16.8295C17.4779 12.3679 18.0036 11.8422 18.0036 11.1937V2.34834H60.7434V64.0366L58.2936 66.2416L57.0045 64.9525C55.5866 63.5342 53.2196 63.5341 51.8015 64.9523C50.3833 66.3706 50.3833 68.7371 51.8015 70.1553L55.5589 73.9126C56.2642 74.6181 57.2137 74.9739 58.1643 74.9738C59.0479 74.9738 59.9324 74.6661 60.6216 74.0459L60.7435 73.9361V77.6517H60.7434ZM72.0135 60.1091C71.9949 60.464 71.8391 60.7906 71.5748 61.0283L59.0504 72.3003C58.5328 72.7659 57.7115 72.7444 57.2192 72.2521L53.4618 68.4947C52.9482 67.9812 52.9499 67.1264 53.4618 66.6128C53.9739 66.0991 54.8314 66.1007 55.3436 66.6128L57.4205 68.6896C57.8621 69.1311 58.5719 69.1497 59.0361 68.7321L69.7942 59.0499C70.6555 58.2751 72.0746 58.9467 72.0135 60.1091Z" fill="#8DC63F"/>
</g>
<defs>
<clipPath id="clip0">
<rect width="80" height="80" fill="white"/>
</clipPath>
</defs>
</svg>
