<svg width="50" height="50" viewBox="0 0 50 50" fill="none" xmlns="http://www.w3.org/2000/svg">
<path d="M50 44.4445C50 47.5126 47.5125 50 44.4445 50H5.55554C2.48755 50 0 47.5124 0 44.4445V5.55554C0 2.48755 2.48755 0 5.55554 0H44.4445C47.5125 0 50 2.48755 50 5.55554V44.4445Z" fill="#8DC63F"/>
<path d="M32.0695 34.5971C33.9654 34.5971 35.4306 35.4582 35.4306 37.4388C35.4306 39.4207 33.9653 40.2818 32.3291 40.2818H17.9458C16.05 40.2818 14.5876 39.4207 14.5876 37.4388C14.5876 36.5359 15.1459 35.7596 15.5764 35.2429C19.1514 30.9805 23.0279 27.104 26.3001 22.3666C27.0751 21.2472 27.8084 19.9124 27.8084 18.3625C27.8084 16.5972 26.4737 15.0458 24.7069 15.0458C19.7542 15.0458 22.1222 22.0222 17.9889 22.0222C15.9223 22.0222 14.8445 20.5584 14.8445 18.8792C14.8445 13.4528 19.6681 9.10416 24.9654 9.10416C30.2626 9.10416 34.5251 12.5917 34.5251 18.0611C34.5251 24.0458 27.8515 29.9903 24.1903 34.5972H32.0695V34.5971Z" fill="white"/>
</svg>
