<svg width="45" height="45" viewBox="0 0 45 45" fill="none" xmlns="http://www.w3.org/2000/svg">
<g clip-path="url(#clip0)">
<path d="M11.2502 2.81262H33.75V8.43757H36.5627V2.81262C36.5627 1.26084 35.3049 0 33.75 0H11.2502C9.69856 0 8.43762 1.26084 8.43762 2.81262V8.43757H11.2502V2.81262Z" fill="#8DC63F"/>
<path d="M42.1879 11.2501H2.81274C1.26106 11.2501 0.00012207 12.5106 0.00012207 14.0624V28.125C0.00012207 29.6797 1.26096 30.9376 2.81274 30.9376H8.43769V42.1875C8.43769 43.7422 9.69853 45 11.2503 45H33.7501C35.305 45 36.5627 43.7422 36.5627 42.1875V30.9376H42.1879C43.7422 30.9376 45 29.6797 45 28.125V14.0624C45 12.5106 43.7421 11.2501 42.1879 11.2501ZM33.75 42.1875H11.2502V22.5H33.75V42.1875ZM39.3752 19.6877C37.8204 19.6877 36.5626 18.4297 36.5626 16.875C36.5626 15.3234 37.8204 14.0624 39.3752 14.0624C40.93 14.0624 42.1878 15.3233 42.1878 16.875C42.1879 18.4296 40.93 19.6877 39.3752 19.6877Z" fill="#8DC63F"/>
<path d="M25.3127 25.3123H14.0626V28.1249H25.3127V25.3123Z" fill="#8DC63F"/>
<path d="M30.9379 30.9376H14.0626V33.7496H30.9379V30.9376Z" fill="#8DC63F"/>
<path d="M30.9379 36.5627H14.0626V39.3749H30.9379V36.5627Z" fill="#8DC63F"/>
</g>
<defs>
<clipPath id="clip0">
<rect width="45.0001" height="45" fill="white"/>
</clipPath>
</defs>
</svg>
