<svg width="15" height="21" viewBox="0 0 15 21" fill="none" xmlns="http://www.w3.org/2000/svg">
<path d="M14.5927 9.84954L3.23054 0.949453C2.96774 0.743439 2.61694 0.629944 2.24288 0.629944C1.86882 0.629944 1.51802 0.743439 1.25522 0.949453L0.418477 1.60473C-0.126 2.03172 -0.126 2.7257 0.418477 3.15204L9.95959 10.6258L0.407891 18.1079C0.145097 18.3139 0 18.5885 0 18.8813C0 19.1745 0.145097 19.4491 0.407891 19.6553L1.24464 20.3104C1.50764 20.5164 1.85824 20.6299 2.23229 20.6299C2.60635 20.6299 2.95716 20.5164 3.21995 20.3104L14.5927 11.4022C14.8561 11.1955 15.0008 10.9196 15 10.6263C15.0008 10.3318 14.8561 10.056 14.5927 9.84954Z" fill="#0D3153"/>
</svg>
