<svg width="100" height="100" viewBox="0 0 100 100" fill="none" xmlns="http://www.w3.org/2000/svg">
<path d="M16.7258 13.1348C11.5004 13.1348 7.24883 17.3861 7.24883 22.6117C7.24883 27.8375 11.5002 32.0887 16.7258 32.0887C21.9516 32.0887 26.203 27.8373 26.203 22.6117C26.203 17.3861 21.9516 13.1348 16.7258 13.1348ZM16.726 29.1491C13.1213 29.1491 10.1885 26.2166 10.1885 22.6117C10.1885 19.0068 13.1211 16.0744 16.726 16.0744C20.3309 16.0744 23.2635 19.007 23.2635 22.6117C23.2635 26.2164 20.3307 29.1491 16.726 29.1491Z" fill="#8DC63F"/>
<path d="M16.726 5.88574C15.9141 5.88574 15.2563 6.54375 15.2563 7.35547V10.3121C15.2563 11.1238 15.9141 11.7818 16.726 11.7818C17.5379 11.7818 18.1957 11.1238 18.1957 10.3121V7.35547C18.1957 6.54375 17.5379 5.88574 16.726 5.88574Z" fill="#8DC63F"/>
<path d="M28.5534 10.7846C27.9792 10.2107 27.0487 10.2105 26.4745 10.7846L24.3838 12.8752C23.8098 13.4492 23.8098 14.3799 24.3838 14.9537C24.671 15.2408 25.0469 15.3842 25.4233 15.3842C25.7993 15.3842 26.1756 15.2408 26.4627 14.9539L28.5534 12.8633C29.1274 12.2893 29.1274 11.3586 28.5534 10.7846Z" fill="#8DC63F"/>
<path d="M31.9823 21.142H29.0258C28.2139 21.142 27.5561 21.8 27.5561 22.6117C27.5561 23.4234 28.2139 24.0814 29.0258 24.0814H31.9823C32.7942 24.0814 33.452 23.4234 33.452 22.6117C33.452 21.8 32.7942 21.142 31.9823 21.142Z" fill="#8DC63F"/>
<path d="M28.5534 32.3602L26.4627 30.2698C25.8883 29.6957 24.9579 29.6957 24.3838 30.2698C23.8098 30.8438 23.8098 31.7744 24.3838 32.3483L26.4745 34.4389C26.7616 34.7258 27.1377 34.8694 27.5139 34.8694C27.8901 34.8694 28.2663 34.726 28.5534 34.4389C29.1274 33.8649 29.1274 32.9342 28.5534 32.3602Z" fill="#8DC63F"/>
<path d="M16.726 33.4419C15.9141 33.4419 15.2563 34.0999 15.2563 34.9116V37.8683C15.2563 38.68 15.9141 39.338 16.726 39.338C17.5379 39.338 18.1957 38.68 18.1957 37.8683V34.9116C18.1957 34.0999 17.5379 33.4419 16.726 33.4419Z" fill="#8DC63F"/>
<path d="M9.06838 30.2698C8.49436 29.6957 7.56389 29.6957 6.98967 30.2698L4.89904 32.3602C4.32482 32.9342 4.32482 33.8649 4.89885 34.4389C5.18596 34.7258 5.56193 34.8694 5.9383 34.8694C6.31428 34.8694 6.69065 34.726 6.97776 34.4389L9.06838 32.3483C9.64221 31.7742 9.64221 30.8436 9.06838 30.2698Z" fill="#8DC63F"/>
<path d="M4.42618 21.142H1.46973C0.657814 21.142 0 21.8 0 22.6117C0 23.4234 0.657814 24.0814 1.46973 24.0814H4.42618C5.2381 24.0814 5.89591 23.4234 5.89591 22.6117C5.89591 21.8 5.2381 21.142 4.42618 21.142Z" fill="#8DC63F"/>
<path d="M9.06838 12.8753L6.97756 10.7846C6.40334 10.2106 5.47287 10.2106 4.89884 10.7846C4.32482 11.3587 4.32482 12.2893 4.89884 12.8634L6.98947 14.954C7.27658 15.2409 7.65275 15.3843 8.02893 15.3843C8.4049 15.3843 8.78127 15.2409 9.06838 14.9538C9.64221 14.3798 9.64221 13.4491 9.06838 12.8753Z" fill="#8DC63F"/>
<path d="M99.2885 89.2932C96.7267 87.5557 93.7564 86.7688 90.8236 86.9274C88.1164 83.1982 83.0095 80.0014 75.9736 77.6451C71.6062 76.1826 66.7322 75.1269 61.5499 74.5002L72.0802 48.08C73.6691 49.2275 75.0558 50.5904 76.1892 52.1322C76.5638 52.6419 77.1417 52.9304 77.7793 52.7751C81.2572 52.1445 84.9453 52.5486 88.4488 53.9449C91.9787 55.3517 94.951 57.6181 97.0441 60.499C97.3248 60.8851 97.7695 61.1047 98.233 61.1047C98.3506 61.1047 98.4693 61.0906 98.5869 61.0613C99.1678 60.9173 99.6033 60.4353 99.6881 59.8429C99.7436 59.4541 101.016 50.2023 97.9844 40.1232C97.7508 39.3458 96.9293 38.9054 96.1537 39.139C95.3764 39.3728 94.9357 40.1925 95.1697 40.9697C96.9392 46.8533 97.1324 52.5421 97.0238 56.0125C94.9262 53.9824 92.3873 52.3499 89.5371 51.214C86.2968 49.9226 82.9068 49.3736 79.6068 49.5929C79.6318 49.5169 79.6544 49.4427 79.6791 49.3671C80.8275 45.8585 81.6839 42.2427 82.1052 38.5722C82.4906 35.2134 82.5265 31.8206 82.1037 28.4636C81.8587 26.5194 81.442 24.5966 80.8439 22.7302C80.8396 22.7167 80.8353 22.7022 80.8308 22.6888C86.1047 25.546 90.1586 29.7562 92.9101 35.2443C93.2738 35.9698 94.157 36.263 94.8826 35.8993C95.6082 35.5357 95.9014 34.6525 95.5377 33.9267C91.8904 26.652 86.1677 21.4194 78.5238 18.3723C68.0105 14.1827 57.0683 15.5608 46.8819 22.3579C39.278 27.4315 34.8255 33.6546 34.6395 33.9169C34.2936 34.4052 34.2786 35.0544 34.601 35.5583C34.9235 36.0622 35.5184 36.3206 36.1077 36.2111C39.6091 35.5601 43.3255 35.9595 46.8552 37.3663C50.3337 38.7529 53.271 40.9739 55.3593 43.7954C55.7655 44.3443 56.3581 44.6818 57.0536 44.4751C58.9202 44.1443 60.8462 44.1115 62.7712 44.3689L51.0284 73.8328C50.7321 73.8303 50.4368 73.825 50.1395 73.825C43.3653 73.825 36.8913 74.4998 30.8973 75.8307C30.1049 76.0066 29.6051 76.7916 29.7813 77.5842C29.9573 78.3766 30.7409 78.8766 31.5346 78.7004C37.2382 77.434 43.6718 76.7646 50.1395 76.7646C53.2052 76.7646 56.2728 76.9103 59.3236 77.2135C59.3345 77.2144 59.3452 77.2142 59.3564 77.215C65.0296 77.7775 70.3466 78.8602 75.0398 80.432C80.6425 82.3084 84.9681 84.7811 87.5068 87.5215C86.2259 87.9193 84.9871 88.5092 83.8314 89.2928C80.139 91.7969 75.3673 91.7969 71.6747 89.2928C66.9796 86.1086 60.9124 86.1088 56.2179 89.2928C52.5255 91.7969 47.7538 91.7969 44.0612 89.2928C39.3663 86.1086 33.2991 86.1088 28.6044 89.2928C24.912 91.7969 20.1403 91.7969 16.4477 89.2928C15.2922 88.5092 14.0533 87.9192 12.7725 87.5215C15.3078 84.785 19.6256 82.315 25.2172 80.4397C25.9868 80.1816 26.4014 79.3484 26.1434 78.5787C25.8854 77.8092 25.0526 77.3943 24.2827 77.6525C17.259 80.008 12.16 83.2023 9.45588 86.927C6.52286 86.7684 3.55274 87.5557 0.991018 89.2928C0.319142 89.7485 0.143946 90.6623 0.599611 91.3342C1.05508 92.0061 1.96836 92.1815 2.64102 91.7258C4.82267 90.2463 7.38127 89.6414 9.87131 89.9104C9.96076 89.9297 10.051 89.942 10.1416 89.9442C11.7721 90.1621 13.3662 90.7549 14.7981 91.726C19.4926 94.9098 25.5596 94.9102 30.2547 91.726C33.9475 89.2217 38.7194 89.2219 42.4116 91.726C47.1063 94.9098 53.1733 94.9102 57.8683 91.726C61.5609 89.2217 66.3327 89.2219 70.0251 91.726C72.3726 93.318 75.063 94.1141 77.7537 94.1141C80.4441 94.1141 83.1345 93.318 85.4822 91.726C86.9107 90.7572 88.501 90.1649 90.1277 89.9457C90.224 89.944 90.3199 89.9309 90.4152 89.9098C92.9033 89.6426 95.4594 90.2475 97.6391 91.7258C98.3109 92.1815 99.225 92.0063 99.6805 91.3342C100.135 90.6629 99.9602 89.7488 99.2885 89.2932ZM59.048 41.2898C59.0636 41.2566 59.0798 41.2238 59.0956 41.1906C60.4648 38.3245 62.0618 35.5542 63.9249 32.9796C64.3804 32.3503 64.2499 31.4005 63.596 30.9273C62.9564 30.4642 62.0054 30.6179 61.5435 31.2564C60.0476 33.3233 58.7185 35.511 57.5257 37.7659C57.0948 38.5808 56.6571 39.4054 56.2876 40.2505C56.2812 40.2642 56.2743 40.2779 56.2679 40.2915C54.0226 37.8616 51.1849 35.9282 47.9436 34.6368C45.0927 33.5005 42.1255 32.9394 39.2063 32.9698C41.1686 30.763 44.3921 27.5415 48.5882 24.7544C52.7487 21.9907 57.0433 20.1866 61.3519 19.3923C65.5204 18.6239 69.7267 18.8042 73.9005 19.9255C73.8837 19.9347 73.8658 19.9448 73.849 19.954C71.591 21.1932 69.4974 22.7224 67.5966 24.4585C66.8552 25.1356 66.132 25.8317 65.439 26.5581C64.8788 27.1456 64.9009 28.0761 65.4884 28.6362C66.0759 29.1964 67.0062 29.1743 67.5665 28.5868C69.4505 26.6106 71.5779 24.8034 73.9001 23.3423C74.9705 22.6686 76.0876 22.06 77.2542 21.5694C77.5607 22.2645 77.9593 23.2936 78.3337 24.6415C80.106 31.0261 79.6271 37.9159 78.0736 44.2915C77.7394 45.6626 77.3533 47.0218 76.9154 48.3632C76.9109 48.3771 76.906 48.3913 76.9015 48.4054C74.9015 46.2894 72.4455 44.5617 69.6648 43.3181C69.6267 43.3011 69.5886 43.2841 69.5505 43.2673C66.2618 41.8157 62.6427 41.0913 59.048 41.2898ZM58.511 74.1838C57.8296 74.1248 57.1435 74.0744 56.4534 74.0299C55.6907 73.9775 54.9267 73.939 54.1628 73.908L65.6902 44.9863C66.3878 45.1861 67.0745 45.4238 67.747 45.6958C67.8562 45.7402 69.5404 46.5117 69.5372 46.5195L58.511 74.1838Z" fill="#8DC63F"/>
</svg>
