<svg width="30" height="30" viewBox="0 0 30 30" fill="none" xmlns="http://www.w3.org/2000/svg">
<circle cx="15" cy="15" r="15" fill="#0D3153"/>
<g clip-path="url(#clip0)">
<path d="M22.7375 6.9902L15.1483 4.31165C15.0524 4.27763 14.9478 4.27763 14.8519 4.31165L7.26267 6.9902C7.08392 7.0534 6.96448 7.22214 6.96448 7.41136V12.7685C6.96448 19.7011 7.99249 22.2349 14.7987 25.6668C14.8624 25.6986 14.9313 25.7148 15.0001 25.7148C15.069 25.7148 15.1379 25.6987 15.2015 25.6668C22.0078 22.2349 23.0358 19.7011 23.0358 12.7685V7.41136C23.0357 7.22214 22.9162 7.05344 22.7375 6.9902ZM22.1428 12.7685C22.1428 19.4086 21.2962 21.5579 15 24.7678C8.7039 21.5579 7.85727 19.4086 7.85727 12.7685V7.72743L15.0001 5.20625L22.1429 7.72743V12.7685H22.1428Z" fill="#F2F2F2"/>
<path d="M10.405 13.3455C10.2306 13.1711 9.9481 13.1711 9.77374 13.3455C9.59934 13.5199 9.59934 13.8024 9.77374 13.9767L13.3451 17.5481C13.4323 17.6353 13.5466 17.6789 13.6608 17.6789C13.775 17.6789 13.8892 17.6353 13.9764 17.5481L20.2263 11.2982C20.4007 11.1238 20.4007 10.8413 20.2263 10.6669C20.0519 10.4925 19.7694 10.4925 19.5951 10.6669L13.6608 16.6012L10.405 13.3455Z" fill="#F2F2F2"/>
</g>
<defs>
<clipPath id="clip0">
<rect width="21.4286" height="21.4286" fill="white" transform="translate(4.28571 4.28613)"/>
</clipPath>
</defs>
</svg>
