<svg width="25" height="25" viewBox="0 0 25 25" fill="none" xmlns="http://www.w3.org/2000/svg">
<path d="M5.87464 12.1823H13.6039C13.8792 12.1823 14.1025 11.959 14.1025 11.6836C14.1025 11.4082 13.8792 11.1849 13.6039 11.1849H5.87464C5.59913 11.1849 5.37598 11.4082 5.37598 11.6836C5.37598 11.959 5.59913 12.1823 5.87464 12.1823Z" fill="#0D3153"/>
<path d="M10.502 14.4262H5.87464C5.59913 14.4262 5.37598 14.6495 5.37598 14.9249C5.37598 15.2002 5.59913 15.4235 5.87464 15.4235H10.502C10.7774 15.4235 11.0007 15.2002 11.0007 14.9249C11.0007 14.6495 10.7774 14.4262 10.502 14.4262Z" fill="#0D3153"/>
<path d="M19.1587 13.319V4.70236C19.1583 3.32544 18.0421 2.20953 16.6654 2.20906H14.6209V1.25662C14.6209 0.981115 14.3977 0.757965 14.1222 0.757965C13.8468 0.757965 13.6235 0.981115 13.6235 1.25662V2.20906H6.84176V1.25662C6.84176 0.981115 6.61861 0.757965 6.3431 0.757965C6.06775 0.757965 5.84444 0.981115 5.84444 1.25662V2.20906H3.79994C2.42317 2.20953 1.30726 3.32544 1.30664 4.70236V18.2111C1.30726 19.5878 2.42317 20.7037 3.79994 20.7043H13.0303C13.9897 23.1618 16.5628 24.5883 19.1554 24.1002C21.7479 23.6123 23.6263 21.3479 23.6268 18.7097C23.6316 16.0319 21.7018 13.7979 19.1587 13.319ZM3.80508 3.20638H5.84959V4.15882C5.84959 4.43418 6.07274 4.65748 6.34825 4.65748C6.6236 4.65748 6.8469 4.43418 6.8469 4.15882V3.20638H13.6287V4.15882C13.6287 4.43418 13.8518 4.65748 14.1273 4.65748C14.4027 4.65748 14.626 4.43418 14.626 4.15882V3.20638H16.6705C17.4956 3.20872 18.164 3.87708 18.1665 4.70236V5.90912H2.3091V4.70236C2.30973 3.8763 2.97918 3.20701 3.80508 3.20638ZM3.80508 19.707C2.9798 19.7047 2.31144 19.0362 2.3091 18.2111V6.90145H18.1613V13.2245H18.1464C16.5178 13.2269 14.9743 13.9517 13.9324 15.2037C12.8903 16.4555 12.4578 18.1051 12.7509 19.707H3.80508ZM18.1464 23.1976C15.6679 23.1976 13.6584 21.1884 13.6584 18.7097C13.6584 16.2311 15.6679 14.2218 18.1464 14.2218C20.625 14.2218 22.6343 16.2311 22.6343 18.7097C22.6306 21.1868 20.6235 23.1939 18.1464 23.1976Z" fill="#0D3153"/>
<path d="M20.4554 16.9195L17.4935 19.7469L15.9625 18.2111C15.7685 18.0169 15.4537 18.0169 15.2595 18.2111C15.0652 18.4052 15.0652 18.72 15.2595 18.9142L17.1393 20.7941C17.2328 20.8882 17.3606 20.9404 17.4935 20.9387C17.6222 20.9398 17.7459 20.8896 17.8374 20.7989L21.1485 17.6325C21.2439 17.5413 21.299 17.4162 21.302 17.2842C21.3047 17.1522 21.2549 17.0246 21.1635 16.9295C20.9693 16.7347 20.655 16.7302 20.4554 16.9195Z" fill="#0D3153"/>
</svg>
