<svg width="80" height="80" viewBox="0 0 80 80" fill="none" xmlns="http://www.w3.org/2000/svg">
<path d="M72.5 20H70V17.5C70 13.3578 66.6422 10 62.5 10H60V7.5C60 3.35781 56.6422 0 52.5 0H7.5C3.35781 0 0 3.35781 0 7.5V52.5C0 56.6422 3.35781 60 7.5 60H10V62.5C10 66.6422 13.3578 70 17.5 70H20V72.5C20 76.6422 23.3578 80 27.5 80H72.5C76.6422 80 80 76.6422 80 72.5V27.5C80 23.3578 76.6422 20 72.5 20ZM5 41.475V7.5C5 6.11922 6.11922 5 7.5 5H52.5C53.8808 5 55 6.11922 55 7.5V31.475L49.275 25.75C48.2998 24.7806 46.7252 24.7806 45.75 25.75L35 36.475L24.275 25.725C23.2998 24.7556 21.7252 24.7556 20.75 25.725L5 41.475ZM17.5 65C16.1192 65 15 63.8808 15 62.5V60H52.5C56.6422 60 60 56.6422 60 52.5V15H62.5C63.8808 15 65 16.1192 65 17.5V62.5C65 63.8808 63.8808 65 62.5 65H17.5ZM75 72.5C75 73.8808 73.8808 75 72.5 75H27.5C26.1192 75 25 73.8808 25 72.5V70H62.5C66.6422 70 70 66.6422 70 62.5V25H72.5C73.8808 25 75 26.1192 75 27.5V72.5Z" fill="#8DC63F"/>
</svg>
