<svg width="50" height="50" viewBox="0 0 50 50" fill="none" xmlns="http://www.w3.org/2000/svg">
<path d="M50 44.4445C50 47.5126 47.5125 50 44.4445 50H5.55554C2.48755 50 0 47.5124 0 44.4445V5.55554C0 2.48755 2.48755 0 5.55554 0H44.4445C47.5125 0 50 2.48755 50 5.55554V44.4445Z" fill="#8DC63F"/>
<path d="M22.8639 15.5208H20.3236C18.257 15.5208 17.3944 14.0139 17.3944 12.55C17.3944 11.0417 18.4708 9.57782 20.3236 9.57782H26.4375C28.2903 9.57782 29.3236 10.9125 29.3236 12.6347V37.1389C29.3236 39.2931 27.9458 40.4972 26.093 40.4972C24.2416 40.4972 22.8639 39.293 22.8639 37.1389V15.5208Z" fill="white"/>
</svg>
