<svg width="80" height="80" viewBox="0 0 80 80" fill="none" xmlns="http://www.w3.org/2000/svg">
<g clip-path="url(#clip0)">
<path d="M30.1324 56.1329C29.5739 56.6914 29.5739 57.5943 30.1324 58.1529C30.411 58.4314 30.7767 58.5714 31.1424 58.5714C31.5082 58.5714 31.8739 58.4314 32.1524 58.1529L49.2939 41.0114C49.4267 40.88 49.531 40.7214 49.6039 40.5457C49.7482 40.1971 49.7482 39.8043 49.6039 39.4543C49.531 39.2786 49.4253 39.12 49.2939 38.9872L32.1524 21.8472C31.5939 21.2886 30.691 21.2886 30.1324 21.8472C29.5739 22.4057 29.5739 23.3086 30.1324 23.8672L44.8367 38.5714H1.14244C0.352439 38.5714 -0.286133 39.21 -0.286133 40C-0.286133 40.79 0.352439 41.4286 1.14244 41.4286H44.8367L30.1324 56.1329Z" fill="#8DC63F"/>
<path d="M66.857 0H13.9999C13.2099 0 12.5713 0.638572 12.5713 1.42857V31.4286C12.5713 32.2186 13.2099 32.8571 13.9999 32.8571C14.7899 32.8571 15.4284 32.2186 15.4284 31.4286V2.85714H65.4284V77.1429H15.4284V48.5714C15.4284 47.7814 14.7899 47.1429 13.9999 47.1429C13.2099 47.1429 12.5713 47.7814 12.5713 48.5714V78.5714C12.5713 79.3614 13.2099 80 13.9999 80H66.857C67.647 80 68.2856 79.3614 68.2856 78.5714V1.42857C68.2856 0.638572 67.647 0 66.857 0Z" fill="#8DC63F"/>
</g>
<defs>
<clipPath id="clip0">
<rect width="80" height="80" fill="white"/>
</clipPath>
</defs>
</svg>
