<svg width="30" height="30" viewBox="0 0 30 30" fill="none" xmlns="http://www.w3.org/2000/svg">
<path d="M22.197 6.5456L4.31655 14.7516C4.11705 14.8436 4.00055 15.0541 4.02955 15.2721C4.05855 15.4901 4.22605 15.6631 4.44255 15.6991L12.359 17.0256L13.2635 24.5006C13.2905 24.7196 13.458 24.8961 13.6755 24.9331C13.704 24.9381 13.732 24.9406 13.76 24.9406C13.9475 24.9406 14.123 24.8351 14.208 24.6626L22.8535 7.2216C22.9475 7.0316 22.912 6.8031 22.7645 6.6511C22.617 6.4991 22.388 6.4571 22.197 6.5456ZM14.055 22.7191L13.307 16.5346C13.28 16.3146 13.1115 16.1381 12.893 16.1016L6.21205 14.9821L21.33 8.0436L14.055 22.7191Z" fill="#0D3153"/>
<path d="M15 0C6.729 0 0 6.729 0 15C0 23.271 6.729 30 15 30C23.271 30 30 23.271 30 15C30 6.729 23.271 0 15 0ZM15 29C7.2805 29 1 22.7195 1 15C1 7.2805 7.2805 1 15 1C22.7195 1 29 7.2805 29 15C29 22.7195 22.7195 29 15 29Z" fill="#0D3153"/>
</svg>
